<svg width="60" height="42" viewBox="0 0 60 42" fill="none" xmlns="http://www.w3.org/2000/svg">
<circle cx="21" cy="21" r="21" fill="#C4C4C4"/>
<path d="M21.1211 16.4688V25H19.9902V16.4688H21.1211ZM26.2715 16.4688L22.7266 20.4473L20.7344 22.5156L20.5469 21.3086L22.0469 19.6562L24.9121 16.4688H26.2715ZM25.1816 25L22.0234 20.8398L22.6973 19.9434L26.5293 25H25.1816ZM26.9102 21.9004V21.7656C26.9102 21.3086 26.9766 20.8848 27.1094 20.4941C27.2422 20.0996 27.4336 19.7578 27.6836 19.4688C27.9336 19.1758 28.2363 18.9492 28.5918 18.7891C28.9473 18.625 29.3457 18.543 29.7871 18.543C30.2324 18.543 30.6328 18.625 30.9883 18.7891C31.3477 18.9492 31.6523 19.1758 31.9023 19.4688C32.1562 19.7578 32.3496 20.0996 32.4824 20.4941C32.6152 20.8848 32.6816 21.3086 32.6816 21.7656V21.9004C32.6816 22.3574 32.6152 22.7812 32.4824 23.1719C32.3496 23.5625 32.1562 23.9043 31.9023 24.1973C31.6523 24.4863 31.3496 24.7129 30.9941 24.877C30.6426 25.0371 30.2441 25.1172 29.7988 25.1172C29.3535 25.1172 28.9531 25.0371 28.5977 24.877C28.2422 24.7129 27.9375 24.4863 27.6836 24.1973C27.4336 23.9043 27.2422 23.5625 27.1094 23.1719C26.9766 22.7812 26.9102 22.3574 26.9102 21.9004ZM27.9941 21.7656V21.9004C27.9941 22.2168 28.0312 22.5156 28.1055 22.7969C28.1797 23.0742 28.291 23.3203 28.4395 23.5352C28.5918 23.75 28.7812 23.9199 29.0078 24.0449C29.2344 24.166 29.498 24.2266 29.7988 24.2266C30.0957 24.2266 30.3555 24.166 30.5781 24.0449C30.8047 23.9199 30.9922 23.75 31.1406 23.5352C31.2891 23.3203 31.4004 23.0742 31.4746 22.7969C31.5527 22.5156 31.5918 22.2168 31.5918 21.9004V21.7656C31.5918 21.4531 31.5527 21.1582 31.4746 20.8809C31.4004 20.5996 31.2871 20.3516 31.1348 20.1367C30.9863 19.918 30.7988 19.7461 30.5723 19.6211C30.3496 19.4961 30.0879 19.4336 29.7871 19.4336C29.4902 19.4336 29.2285 19.4961 29.002 19.6211C28.7793 19.7461 28.5918 19.918 28.4395 20.1367C28.291 20.3516 28.1797 20.5996 28.1055 20.8809C28.0312 21.1582 27.9941 21.4531 27.9941 21.7656ZM35.125 20.0137V25H34.041V18.6602H35.0664L35.125 20.0137ZM34.8672 21.5898L34.416 21.5723C34.4199 21.1387 34.4844 20.7383 34.6094 20.3711C34.7344 20 34.9102 19.6777 35.1367 19.4043C35.3633 19.1309 35.6328 18.9199 35.9453 18.7715C36.2617 18.6191 36.6113 18.543 36.9941 18.543C37.3066 18.543 37.5879 18.5859 37.8379 18.6719C38.0879 18.7539 38.3008 18.8867 38.4766 19.0703C38.6562 19.2539 38.793 19.4922 38.8867 19.7852C38.9805 20.0742 39.0273 20.4277 39.0273 20.8457V25H37.9375V20.834C37.9375 20.502 37.8887 20.2363 37.791 20.0371C37.6934 19.834 37.5508 19.6875 37.3633 19.5977C37.1758 19.5039 36.9453 19.457 36.6719 19.457C36.4023 19.457 36.1562 19.5137 35.9336 19.627C35.7148 19.7402 35.5254 19.8965 35.3652 20.0957C35.209 20.2949 35.0859 20.5234 34.9961 20.7812C34.9102 21.0352 34.8672 21.3047 34.8672 21.5898ZM43.3281 18.6602V19.4922H39.9004V18.6602H43.3281ZM41.0605 17.1191H42.1445V23.4297C42.1445 23.6445 42.1777 23.8066 42.2441 23.916C42.3105 24.0254 42.3965 24.0977 42.502 24.1328C42.6074 24.168 42.7207 24.1855 42.8418 24.1855C42.9316 24.1855 43.0254 24.1777 43.123 24.1621C43.2246 24.1426 43.3008 24.127 43.3516 24.1152L43.3574 25C43.2715 25.0273 43.1582 25.0527 43.0176 25.0762C42.8809 25.1035 42.7148 25.1172 42.5195 25.1172C42.2539 25.1172 42.0098 25.0645 41.7871 24.959C41.5645 24.8535 41.3867 24.6777 41.2539 24.4316C41.125 24.1816 41.0605 23.8457 41.0605 23.4238V17.1191ZM47.2305 25.1172C46.7891 25.1172 46.3887 25.043 46.0293 24.8945C45.6738 24.7422 45.3672 24.5293 45.1094 24.2559C44.8555 23.9824 44.6602 23.6582 44.5234 23.2832C44.3867 22.9082 44.3184 22.498 44.3184 22.0527V21.8066C44.3184 21.291 44.3945 20.832 44.5469 20.4297C44.6992 20.0234 44.9062 19.6797 45.168 19.3984C45.4297 19.1172 45.7266 18.9043 46.0586 18.7598C46.3906 18.6152 46.7344 18.543 47.0898 18.543C47.543 18.543 47.9336 18.6211 48.2617 18.7773C48.5938 18.9336 48.8652 19.1523 49.0762 19.4336C49.2871 19.7109 49.4434 20.0391 49.5449 20.418C49.6465 20.793 49.6973 21.2031 49.6973 21.6484V22.1348H44.9629V21.25H48.6133V21.168C48.5977 20.8867 48.5391 20.6133 48.4375 20.3477C48.3398 20.082 48.1836 19.8633 47.9688 19.6914C47.7539 19.5195 47.4609 19.4336 47.0898 19.4336C46.8438 19.4336 46.6172 19.4863 46.4102 19.5918C46.2031 19.6934 46.0254 19.8457 45.877 20.0488C45.7285 20.252 45.6133 20.5 45.5312 20.793C45.4492 21.0859 45.4082 21.4238 45.4082 21.8066V22.0527C45.4082 22.3535 45.4492 22.6367 45.5312 22.9023C45.6172 23.1641 45.7402 23.3945 45.9004 23.5938C46.0645 23.793 46.2617 23.9492 46.4922 24.0625C46.7266 24.1758 46.9922 24.2324 47.2891 24.2324C47.6719 24.2324 47.9961 24.1543 48.2617 23.998C48.5273 23.8418 48.7598 23.6328 48.959 23.3711L49.6152 23.8926C49.4785 24.0996 49.3047 24.2969 49.0938 24.4844C48.8828 24.6719 48.623 24.8242 48.3145 24.9414C48.0098 25.0586 47.6484 25.1172 47.2305 25.1172ZM51.6953 18.6602L53.084 20.9688L54.4902 18.6602H55.7617L53.6875 21.7891L55.8262 25H54.5723L53.1074 22.6211L51.6426 25H50.3828L52.5156 21.7891L50.4473 18.6602H51.6953ZM59.5703 18.6602V19.4922H56.1426V18.6602H59.5703ZM57.3027 17.1191H58.3867V23.4297C58.3867 23.6445 58.4199 23.8066 58.4863 23.916C58.5527 24.0254 58.6387 24.0977 58.7441 24.1328C58.8496 24.168 58.9629 24.1855 59.084 24.1855C59.1738 24.1855 59.2676 24.1777 59.3652 24.1621C59.4668 24.1426 59.543 24.127 59.5938 24.1152L59.5996 25C59.5137 25.0273 59.4004 25.0527 59.2598 25.0762C59.123 25.1035 58.957 25.1172 58.7617 25.1172C58.4961 25.1172 58.252 25.0645 58.0293 24.959C57.8066 24.8535 57.6289 24.6777 57.4961 24.4316C57.3672 24.1816 57.3027 23.8457 57.3027 23.4238V17.1191Z" fill="black"/>
</svg>
